<?xml version="1.0" standalone="no"?>
<!DOCTYPE svg PUBLIC "-//W3C//DTD SVG 20010904//EN"
 "http://www.w3.org/TR/2001/REC-SVG-20010904/DTD/svg10.dtd">
<svg version="1.0" xmlns="http://www.w3.org/2000/svg"
 width="525.000000pt" height="525.000000pt" viewBox="0 0 525.000000 525.000000"
 preserveAspectRatio="xMidYMid meet">
<metadata>
Created by potrace 1.14, written by Peter Selinger 2001-2017
</metadata>
<g transform="translate(0.000000,525.000000) scale(0.100000,-0.100000)"
fill="#000000" stroke="none">
<path d="M2379 4991 c-16 -16 -29 -38 -29 -49 0 -10 -3 -22 -7 -26 -4 -3 -8
-14 -10 -24 -52 -298 34 -672 154 -672 20 0 60 53 69 91 16 64 30 182 28 230
-9 230 -53 392 -121 455 -34 31 -48 30 -84 -5z"/>
<path d="M4183 4577 c-52 -27 -129 -91 -193 -162 -30 -33 -64 -71 -77 -85 -13
-14 -23 -28 -23 -32 0 -3 -6 -13 -12 -20 -57 -59 -164 -254 -187 -338 -71
-258 205 -93 456 272 18 26 33 52 33 57 0 5 6 16 13 23 13 13 54 96 75 153 20
55 23 106 7 131 -17 27 -40 27 -92 1z"/>
<path d="M888 4329 c-79 -45 112 -290 372 -479 103 -74 249 -150 303 -156 89
-11 108 26 60 114 -57 104 -165 216 -343 355 -75 59 -180 119 -268 153 -68 26
-97 29 -124 13z"/>
<path d="M2478 3915 c-2 -2 -16 -5 -33 -8 -88 -14 -118 -21 -199 -48 -95 -32
-236 -100 -311 -151 -5 -4 -41 -33 -80 -65 -244 -201 -387 -459 -429 -773 -17
-128 -10 -343 15 -407 5 -13 7 -23 4 -23 -4 0 20 -90 32 -120 3 -8 7 -20 9
-27 6 -28 137 -286 154 -303 3 -3 18 -25 34 -50 16 -25 98 -135 182 -246 169
-222 244 -333 298 -441 34 -69 79 -190 90 -243 2 -14 10 -50 16 -80 7 -30 13
-129 14 -219 3 -168 11 -201 36 -141 9 22 17 29 29 25 120 -49 143 -56 271
-75 58 -8 265 -6 315 5 17 3 53 17 81 31 71 34 76 62 22 114 -21 21 -35 41
-30 44 10 6 42 69 47 90 1 6 5 18 8 26 16 37 87 236 87 242 0 4 5 19 12 35 6
15 12 30 13 33 1 3 6 16 12 30 6 14 19 52 31 85 23 66 104 272 127 322 8 17
15 33 15 36 0 3 18 44 40 91 22 47 40 88 40 91 0 3 53 114 119 247 119 244
167 362 194 473 18 72 16 59 23 217 11 248 -54 477 -197 691 -56 83 -207 231
-294 289 -140 93 -333 171 -475 193 -46 7 -316 15 -322 10z m1057 -1252 c-3
-32 -8 -75 -11 -97 -5 -39 -54 -195 -78 -250 -7 -17 -23 -52 -35 -78 -11 -26
-21 -50 -21 -52 0 -3 -13 -33 -29 -68 -16 -35 -48 -110 -70 -168 -23 -58 -46
-114 -52 -125 -5 -11 -11 -29 -13 -40 -3 -11 -21 -66 -41 -123 -35 -101 -101
-323 -111 -372 -3 -14 -14 -61 -24 -105 -11 -44 -22 -93 -25 -110 -8 -42 -24
-134 -31 -173 -7 -41 -13 -114 -13 -166 -1 -29 -4 -36 -13 -28 -12 9 -103 38
-153 48 -91 19 -302 25 -385 10 -25 -4 -49 -8 -55 -9 -6 -1 -8 16 -6 43 3 25
4 80 4 123 0 42 2 77 4 77 2 0 16 -11 30 -24 103 -96 416 -125 542 -50 33 20
50 66 31 88 -6 8 -7 15 -1 18 5 1 12 20 15 41 5 33 38 186 52 242 3 11 7 27 9
35 2 8 4 15 5 15 2 0 5 12 13 50 2 11 7 27 10 35 3 8 13 42 22 75 9 33 25 85
36 115 11 30 22 65 25 77 2 12 9 35 16 50 6 16 12 35 14 43 2 9 15 42 29 73
14 32 25 62 25 67 0 6 9 29 19 53 11 23 43 98 71 167 29 69 58 139 65 155 52
115 100 247 109 295 20 116 30 136 21 43z m-1862 -103 c3 -14 14 -49 25 -77
11 -29 18 -53 16 -53 -2 0 17 -39 42 -87 39 -76 286 -459 304 -473 3 -3 10
-12 13 -20 4 -8 32 -53 62 -100 48 -76 148 -262 151 -282 1 -5 3 -11 4 -15 1
-5 2 -11 1 -15 0 -5 4 -8 9 -8 6 0 10 -8 10 -18 0 -10 4 -22 9 -27 6 -6 12
-21 15 -35 3 -14 10 -41 16 -60 6 -19 13 -66 17 -105 3 -38 9 -72 13 -75 5 -3
3 -13 -5 -23 -11 -15 -13 -12 -20 25 -4 24 -9 51 -11 60 -6 26 -44 138 -64
183 -9 22 -20 47 -24 55 -21 51 -178 314 -195 330 -13 11 -71 101 -71 109 0 5
-4 11 -9 13 -5 2 -27 32 -50 68 -23 36 -46 72 -51 80 -87 132 -184 339 -196
420 -1 8 -5 26 -8 40 -10 40 -19 126 -13 120 3 -3 8 -17 10 -30z"/>
<path d="M4710 3425 c-242 -66 -507 -207 -647 -345 -60 -59 -67 -114 -15 -126
15 -3 32 -7 38 -9 17 -5 151 23 224 46 89 29 245 97 301 131 25 15 49 28 53
28 15 0 155 102 203 147 80 75 95 122 46 141 -42 17 -108 12 -203 -13z"/>
<path d="M342 3239 c-54 -21 -40 -70 44 -154 222 -220 778 -451 820 -340 16
41 -40 117 -144 197 -31 23 -58 46 -60 51 -2 4 -8 7 -14 7 -5 0 -28 13 -51 29
-53 36 -175 100 -247 129 -30 13 -64 27 -75 32 -102 43 -230 66 -273 49z"/>
<path d="M2448 405 c-2 -2 -19 -5 -38 -8 -59 -9 -95 -26 -112 -55 -21 -35 -7
-63 51 -103 175 -117 581 -150 676 -55 65 65 -84 165 -305 207 -57 10 -264 21
-272 14z"/>
</g>
</svg>
